<?xml version="1.0" standalone="no"?>
<!DOCTYPE svg PUBLIC "-//W3C//DTD SVG 20010904//EN"
 "http://www.w3.org/TR/2001/REC-SVG-20010904/DTD/svg10.dtd">
<svg version="1.0" xmlns="http://www.w3.org/2000/svg"
 width="732.000000pt" height="732.000000pt" viewBox="0 0 732.000000 732.000000"
 preserveAspectRatio="xMidYMid meet">
<metadata>
Created by potrace 1.14, written by Peter Selinger 2001-2017
</metadata>
<g transform="translate(0.000000,732.000000) scale(0.100000,-0.100000)"
fill="#000000" stroke="none">
<path d="M6005 4920 c-49 -10 -115 -28 -145 -39 -74 -29 -204 -95 -220 -111
-3 -3 -25 -19 -49 -35 -100 -68 -259 -242 -325 -357 -16 -27 -29 -48 -30 -48
-1 0 -21 9 -45 21 -24 11 -73 23 -111 26 l-68 6 -4 96 c-3 77 -9 107 -30 153
-90 196 -317 281 -503 188 -141 -70 -216 -195 -217 -365 l-1 -75 -38 0 c-22 0
-42 0 -46 0 -4 0 -6 49 -5 110 2 172 -38 260 -159 352 -165 124 -402 81 -523
-95 -47 -68 -64 -131 -69 -252 -4 -117 4 -167 37 -236 l24 -51 -24 -41 c-13
-23 -24 -47 -24 -54 0 -6 -5 -24 -10 -38 l-10 -27 -32 39 c-32 38 -150 143
-161 143 -3 0 -25 13 -49 29 -104 69 -261 113 -419 116 -307 7 -544 -103 -734
-340 -26 -33 -49 -61 -50 -63 -1 -1 -12 28 -25 65 -55 167 -138 294 -282 435
-116 113 -236 198 -368 261 -236 113 -545 179 -845 181 -159 1 -160 1 -225
-30 -80 -39 -141 -98 -183 -178 l-32 -61 0 -965 0 -965 31 -65 c53 -108 138
-183 245 -214 307 -89 691 -79 985 25 209 74 399 207 513 359 14 19 28 37 31
40 3 3 19 26 36 52 l30 48 19 -43 c10 -23 40 -74 66 -113 179 -266 483 -417
828 -409 126 3 141 5 246 36 115 34 260 112 349 186 l30 25 24 -48 c29 -56
102 -130 160 -161 104 -55 250 -53 356 5 83 45 149 125 181 219 17 49 19 112
27 755 l3 217 46 -2 47 -2 0 -445 c-1 -245 3 -466 7 -490 20 -120 116 -230
245 -279 77 -29 203 -24 280 12 87 40 162 119 198 209 15 38 18 99 22 517 5
442 6 474 23 477 15 2 17 -7 18 -64 4 -221 47 -406 134 -584 146 -294 377
-490 661 -560 94 -23 293 -30 384 -15 214 38 407 138 567 296 90 88 102 103
164 191 72 103 130 216 176 345 19 56 63 246 69 305 16 149 9 370 -15 485 -6
28 -13 61 -15 74 -12 56 -61 191 -94 256 -114 230 -304 417 -517 508 -117 50
-207 68 -355 72 -79 2 -143 -3 -205 -15z m242 -752 c88 -41 150 -131 187 -268
20 -74 15 -311 -8 -395 -42 -149 -144 -293 -238 -335 -129 -56 -234 -20 -302
104 -30 54 -41 87 -62 186 -7 35 -7 216 1 270 35 251 191 457 348 460 15 0 48
-10 74 -22z m-5282 -133 c162 -80 238 -172 269 -330 21 -100 14 -244 -14 -320
-50 -134 -190 -219 -395 -240 l-60 -7 1 484 c1 265 2 484 3 485 4 7 121 -36
196 -72z m2436 -700 c0 -42 -1 -79 -4 -81 -2 -2 -28 7 -58 21 -30 14 -66 25
-81 25 -41 0 -34 13 20 43 26 14 63 37 82 50 19 14 36 24 38 22 1 -1 3 -37 3
-80z"/>
</g>
</svg>
